nColumns=19
nRows=41
DataType=double
version=3
OpenSimVersion=4.1
endheader
time	ground_force_calcn_l_vx	ground_force_calcn_l_vy	ground_force_calcn_l_vz	ground_force_calcn_l_px	ground_force_calcn_l_py	ground_force_calcn_l_pz	ground_force_calcn_l_mx	ground_force_calcn_l_my	ground_force_calcn_l_mz	ground_force_calcn_r_vx	ground_force_calcn_r_vy	ground_force_calcn_r_vz	ground_force_calcn_r_px	ground_force_calcn_r_py	ground_force_calcn_r_pz	ground_force_calcn_r_mx	ground_force_calcn_r_my	ground_force_calcn_r_mz
2.7875	-108.948	604.649	-35.399	-0.0061234	-6.38044e-19	0.0291697	0.700476	-3.88756	0.227596	18.5869	201.04	-10.198	-0.453435	-4.46215e-17	-0.0751601	0.0357023	0.386164	-0.0195886
2.79749	-108.141	564.36	-29.8556	-0.00295899	-2.92163e-19	0.0264772	0.669323	-3.49303	0.184787	27.8467	244.199	-7.63702	-0.41923	-4.34479e-17	-0.071817	0.203685	1.7862	-0.0558613
2.80748	-105.405	519.6	-24.2277	-0.000168866	1.21143e-20	0.0240697	0.628393	-3.09772	0.144439	38.0465	288.611	-3.87947	-0.392709	-4.24109e-17	-0.0700765	0.453214	3.43796	-0.0462126
2.81747	-100.708	471.268	-18.7215	0.0022969	2.80417e-19	0.0221574	0.580223	-2.71518	0.107863	48.6472	333.36	0.762485	-0.372875	-4.15061e-17	-0.0697065	0.763898	5.23469	0.0119732
2.82746	-94.1225	420.375	-13.5987	0.00454328	5.24222e-19	0.0208894	0.51933	-2.31946	0.0750319	59.1379	377.74	5.93686	-0.358488	-4.07135e-17	-0.0704172	1.09852	7.01669	0.11028
2.83746	-85.8363	368.092	-9.08122	0.00672566	7.61109e-19	0.0203648	0.451615	-1.93666	0.0477795	69.0285	421.048	11.2651	-0.348254	-4.00047e-17	-0.0718457	1.43091	8.72803	0.233518
2.84745	-76.1885	315.819	-5.33637	0.00898259	1.00667e-18	0.020655	0.381692	-1.58221	0.0267344	77.8352	462.715	16.4788	-0.341001	-3.93526e-17	-0.0737376	1.73149	10.2933	0.366581
2.85744	-65.5676	265.038	-2.44792	0.0114944	1.28093e-18	0.0219415	0.30662	-1.23942	0.0114474	85.2763	502.485	21.431	-0.335677	-3.87281e-17	-0.0759163	1.98105	11.6732	0.497863
2.86743	-54.4823	216.992	-0.428181	0.0144783	1.60831e-18	0.0242158	0.224205	-0.892964	0.00176205	91.199	540.28	25.9909	-0.331427	-3.81067e-17	-0.0782256	2.16818	12.8447	0.61791
2.87742	-43.5443	172.657	0.752248	0.0179912	1.99576e-18	0.027197	0.150392	-0.596318	-0.00259809	95.44	575.803	30.0193	-0.327717	-3.7484e-17	-0.0804872	2.28295	13.7734	0.718072
2.88741	-33.3055	132.867	1.24005	0.0221362	2.45454e-18	0.0307563	0.0988442	-0.394324	-0.00368024	97.9764	608.651	33.4405	-0.324198	-3.68606e-17	-0.0825902	2.33059	14.4781	0.795456
2.8974	-24.1698	98.2439	1.2385	0.0273997	3.03848e-18	0.0349841	0.0604453	-0.245694	-0.00309732	98.9154	638.48	36.3152	-0.32061	-3.62344e-17	-0.0845112	2.3152	14.9442	0.849989
2.90739	-16.4437	69.0151	0.984205	0.0344031	3.81678e-18	0.0398654	0.0283463	-0.118971	-0.00169661	98.4106	664.96	38.7223	-0.316756	-3.56001e-17	-0.0862326	2.24951	15.1999	0.88513
2.91738	-10.3196	45.0693	0.686425	0.0429252	4.76409e-18	0.0449589	0.00957859	-0.0418329	-0.000637135	96.6428	687.624	40.716	-0.312575	-3.49593e-17	-0.0877119	2.14923	15.292	0.905477
2.92737	-5.77082	26.3132	0.427296	0.0520775	5.78159e-18	0.0499665	0.000541858	-0.00247071	-4.01214e-05	93.8366	706.092	42.3721	-0.308096	-3.43188e-17	-0.0889555	2.02035	15.2026	0.912296
2.93737	-2.66534	12.7462	0.220558	0.061346	6.8123e-18	0.0547612	-0.0021179	0.0101282	0.000175257	90.2269	720.153	43.7089	-0.303357	-3.36825e-17	-0.0899811	1.87453	14.9617	0.908085
2.94736	0	0	0	0	-3.30486e-17	0	0	0	0	85.9656	729.828	44.6887	-0.29837	-3.30486e-17	-0.0908125	1.72301	14.628	0.895696
2.95735	0	0	0	0	-3.24172e-17	0	0	0	0	81.2624	735.201	45.2986	-0.293171	-3.24172e-17	-0.0914504	1.56943	14.199	0.874855
2.96734	0	0	0	0	-3.17983e-17	0	0	0	0	76.2687	736.429	45.5665	-0.287888	-3.17983e-17	-0.091913	1.41212	13.635	0.843663
2.97733	0	0	0	0	-3.11952e-17	0	0	0	0	71.0688	733.891	45.4796	-0.282594	-3.11952e-17	-0.0922336	1.25572	12.9672	0.803583
2.98732	0	0	0	0	-3.06052e-17	0	0	0	0	65.7064	728.117	44.988	-0.277301	-3.06052e-17	-0.0924354	1.10319	12.2248	0.755333
2.99731	0	0	0	0	-3.00228e-17	0	0	0	0	60.3293	719.569	44.0468	-0.271991	-3.00228e-17	-0.092512	0.957579	11.4214	0.699134
3.0073	0	0	0	0	-2.94497e-17	0	0	0	0	54.9394	708.751	42.7076	-0.26671	-2.94497e-17	-0.0924979	0.818288	10.5564	0.636102
3.01729	0	0	0	0	-2.88878e-17	0	0	0	0	49.5478	696.261	41.0507	-0.261494	-2.88878e-17	-0.0924434	0.686524	9.64725	0.56879
3.02728	0	0	0	0	-2.8328e-17	0	0	0	0	44.2195	682.757	39.153	-0.256281	-2.8328e-17	-0.0923814	0.562887	8.69108	0.498394
3.03728	0	0	0	0	-2.77571e-17	0	0	0	0	39.0024	668.867	37.0738	-0.250961	-2.77571e-17	-0.092354	0.449403	7.70698	0.427181
3.04727	0	0	0	0	-2.71677e-17	0	0	0	0	33.8863	655.207	34.8932	-0.245481	-2.71677e-17	-0.092415	0.348177	6.73217	0.358523
3.05726	0	0	0	0	-2.65569e-17	0	0	0	0	28.8992	642.381	32.7143	-0.239822	-2.65569e-17	-0.0925932	0.260223	5.78431	0.294575
3.06725	0	0	0	0	-2.59244e-17	0	0	0	0	24.0932	630.938	30.6396	-0.233982	-2.59244e-17	-0.0928699	0.184359	4.82788	0.234451
3.07724	0	0	0	0	-2.52683e-17	0	0	0	0	19.49	621.304	28.7008	-0.227944	-2.52683e-17	-0.0932362	0.12182	3.8834	0.179391
3.08723	0	0	0	0	-2.45888e-17	0	0	0	0	15.078	613.776	26.8954	-0.221716	-2.45888e-17	-0.0936939	0.0734384	2.98944	0.130996
3.09722	0	0	0	0	-2.38861e-17	0	0	0	0	10.8838	608.547	25.2175	-0.215295	-2.38861e-17	-0.0942011	0.0382109	2.13649	0.0885338
3.10721	0	0	0	0	-2.31618e-17	0	0	0	0	6.93723	605.671	23.6608	-0.208697	-2.31618e-17	-0.0946925	0.0152974	1.33557	0.0521747
3.1172	0	0	0	0	-2.24219e-17	0	0	0	0	3.1949	605.086	22.2527	-0.201973	-2.24219e-17	-0.095148	0.00305296	0.578205	0.0212641
3.1272	0	0	0	0	-2.167e-17	0	0	0	0	-0.36287	606.63	21.0536	-0.195153	-2.167e-17	-0.0955591	7.81868e-05	-0.130709	-0.00453637
3.13719	0	0	0	0	-2.09055e-17	0	0	0	0	-3.77139	610.139	20.1062	-0.188233	-2.09055e-17	-0.0959443	0.00478743	-0.774514	-0.0255229
3.14718	0	0	0	0	-2.01294e-17	0	0	0	0	-7.07358	615.372	19.4755	-0.181217	-2.01294e-17	-0.0963332	0.0153072	-1.33167	-0.042145
3.15717	0	0	0	0	-1.93497e-17	0	0	0	0	-10.2651	621.987	19.2387	-0.174177	-1.93497e-17	-0.096768	0.0294422	-1.78397	-0.0551799
3.16716	0	0	0	0	-1.85819e-17	0	0	0	0	-13.3363	629.629	19.4549	-0.167249	-1.85819e-17	-0.0972771	0.0454708	-2.14675	-0.0663325
3.17715	0	0	0	0	-1.78373e-17	0	0	0	0	-16.2687	637.988	20.0864	-0.160532	-1.78373e-17	-0.0978732	0.061105	-2.39627	-0.0754443
3.18714	0	0	0	0	-1.71211e-17	0	0	0	0	-19.0265	646.735	21.0459	-0.154077	-1.71211e-17	-0.0985347	0.0738964	-2.51183	-0.0817394
